<svg width="127" height="50" viewBox="0 0 127 50" fill="none" xmlns="http://www.w3.org/2000/svg">
<path fill-rule="evenodd" clip-rule="evenodd" d="M85.7746 3.5158C85.7746 5.1093 84.4795 6.39279 82.8855 6.39279C81.2853 6.39279 79.9902 5.1031 79.9902 3.5158C79.9902 1.9347 81.2853 0.64502 82.8855 0.64502C84.4795 0.64502 85.7746 1.9347 85.7746 3.5158ZM52.2515 20.9578C52.2515 27.71 46.7474 33.1787 39.973 33.1787C33.2049 33.1787 27.707 27.7038 27.707 20.9578C27.707 14.2117 33.2112 8.75537 39.973 8.75537C46.7474 8.75537 52.2515 14.2117 52.2515 20.9578ZM39.973 13.4119C35.7827 13.4119 32.3831 16.7849 32.3831 20.9578C32.3831 25.1368 35.7765 28.5284 39.973 28.5284C44.1759 28.5284 47.5693 25.1368 47.5693 20.9578C47.5693 16.7849 44.1759 13.4119 39.973 13.4119ZM72.3071 9.62305L64.8727 26.3951L57.4322 9.62305H52.2954L62.4631 31.6593C62.8927 32.5893 63.8018 33.1412 64.7669 33.1722H64.8727H64.9724C65.9312 33.1412 66.8403 32.5831 67.2761 31.6593L77.4439 9.62305H72.3071ZM80.5322 30.847V9.62305H85.1833V30.847C85.1833 32.1305 84.1684 33.1784 82.8671 33.1784C81.5783 33.1784 80.5322 32.1305 80.5322 30.847ZM113.874 8.75537C120.649 8.75537 126.128 14.2117 126.128 20.9578C126.128 21.038 126.13 21.1176 126.131 21.197C126.135 21.3816 126.139 21.565 126.122 21.7514V30.8474C126.122 32.1309 125.107 33.1787 123.812 33.1787C122.517 33.1787 121.471 32.1309 121.471 30.8474V30.5498V29.7747C119.385 32.0999 116.745 33.1787 113.874 33.1787C107.106 33.1787 101.608 27.71 101.608 20.9578C101.608 14.2117 107.106 8.75537 113.874 8.75537ZM106.291 20.964C106.291 25.1368 109.69 28.5284 113.881 28.5284C118.077 28.5284 121.477 25.1368 121.477 20.964C121.477 16.7911 118.083 13.4181 113.881 13.4181C109.69 13.4181 106.291 16.7911 106.291 20.964ZM90.1953 23.7851V25.7258C90.1953 29.3282 92.2002 33.0361 97.063 33.3833C97.1439 33.3895 97.2186 33.3895 97.2995 33.3895H97.2996C98.5449 33.3647 99.6781 32.602 99.7093 31.3371C99.7404 29.9917 98.8127 29.3282 97.5238 28.9562C95.1391 28.2742 94.8838 26.2838 94.8838 24.6841V14.0814H98.1713C99.3979 14.0814 100.4 13.0894 100.4 11.8679C100.4 10.6402 99.4042 9.64816 98.1713 9.64816H94.8838V7.40361C94.8838 6.11393 93.8253 5.07227 92.5364 5.07227C91.2413 5.07227 90.1953 6.12013 90.1953 7.40361V23.7851ZM19.8807 21.1501C19.8807 16.1464 16.8671 13.4988 12.6767 13.4988V13.505H12.7577C8.5673 13.505 5.54749 16.1526 5.54749 21.1563V27.2823V30.8537C5.54749 32.1372 4.50146 33.185 3.20636 33.185C1.91127 33.185 0.865234 32.1372 0.865234 30.8537V27.2823V20.003C0.865234 13.2704 5.97533 8.85992 12.7172 8.84234C19.459 8.85992 24.5629 13.2704 24.5629 20.003V27.2761V30.8475C24.5629 32.131 23.5169 33.1788 22.2218 33.1788C20.9329 33.1788 19.8807 32.131 19.8807 30.8475V27.2761V21.1501ZM12.7172 8.84234C12.7307 8.8423 12.7442 8.84229 12.7577 8.84229H12.6767C12.6902 8.84229 12.7037 8.8423 12.7172 8.84234Z" fill="#712282"/>
<path fill-rule="evenodd" clip-rule="evenodd" d="M51.1001 45.1824C51.1001 47.675 49.3629 49.4359 46.9658 49.4359C44.5561 49.4359 42.8252 47.6812 42.8252 45.1824C42.8252 42.8573 44.8114 41.2266 46.9658 41.2266C49.1139 41.2266 51.1001 42.8573 51.1001 45.1824ZM44.8488 45.1948C44.8488 46.5217 45.8014 47.4952 46.9658 47.4952C48.1239 47.4952 49.0765 46.5217 49.0765 45.1948C49.0765 44.1407 48.1239 43.1611 46.9658 43.1611C45.8014 43.1611 44.8488 44.1407 44.8488 45.1948ZM43.9958 41.4868H41.4803L39.1329 43.8368H39.108V41.4868H37.1592V49.1753H39.108V46.2983L41.6484 49.1753H44.3133L40.4467 45.1264L43.9958 41.4868ZM89.3672 43.4955C89.0435 42.9498 88.5889 42.5158 88.0223 42.2058C87.4557 41.8896 86.8331 41.7283 86.1482 41.7345C85.4571 41.7345 84.8344 41.8958 84.2616 42.2058C83.695 42.5096 83.2529 42.9436 82.9167 43.4955C82.5929 44.0473 82.4248 44.6549 82.4248 45.306C82.4248 45.9632 82.5929 46.5709 82.9167 47.1227C83.2529 47.6807 83.7012 48.1148 84.274 48.4248C84.8407 48.7534 85.4695 48.9146 86.1482 48.9146C86.8269 48.9146 87.4557 48.7534 88.0223 48.4248C88.5889 48.1148 89.0435 47.6807 89.3672 47.1227C89.7035 46.5647 89.8716 45.9632 89.8716 45.306C89.8716 44.6487 89.7035 44.0473 89.3672 43.4955ZM83.7822 43.9357C84.0374 43.5327 84.3737 43.1978 84.7908 42.9684C85.208 42.7142 85.675 42.5902 86.1544 42.5964C86.6401 42.5964 87.1008 42.7204 87.5118 42.9684C87.9289 43.1978 88.2652 43.5327 88.5018 43.9357C88.7508 44.3573 88.8754 44.8037 88.8754 45.306C88.8754 45.7958 88.7508 46.2546 88.5018 46.6763C88.2589 47.0855 87.9289 47.4203 87.5118 47.6683C87.1008 47.9039 86.6401 48.0279 86.1544 48.0279C85.6688 48.0279 85.208 47.9039 84.7908 47.6683C84.3737 47.4203 84.0374 47.0855 83.7822 46.6763C83.5331 46.2546 83.4148 45.7958 83.4148 45.306C83.4148 44.8037 83.5331 44.3573 83.7822 43.9357ZM79.4922 42.584C79.872 42.584 80.2269 42.6646 80.588 42.8134C80.9492 42.9808 81.2605 43.1978 81.5282 43.4892L82.1073 42.801C81.7773 42.46 81.3663 42.2058 80.9118 42.0197C80.4511 41.8337 79.9779 41.7407 79.486 41.7407C78.8011 41.7407 78.1846 41.9019 77.618 42.212C77.0514 42.522 76.5969 42.956 76.2794 43.5078C75.9494 44.0535 75.7812 44.6611 75.7812 45.3122C75.7812 45.9694 75.9431 46.577 76.2731 47.1289C76.5969 47.6807 77.0328 48.1147 77.5931 48.4247C78.1535 48.7534 78.7637 48.9146 79.4486 48.9146C79.928 48.9146 80.4012 48.803 80.8807 48.617C81.3539 48.4124 81.7648 48.1395 82.126 47.7923L81.5344 47.1537C81.2605 47.4203 80.9367 47.6249 80.5818 47.7737C80.2269 47.9287 79.8658 47.9969 79.4922 47.9969C78.9878 47.9969 78.5333 47.8853 78.1099 47.6373C77.699 47.3893 77.369 47.0731 77.1199 46.6514C76.8833 46.2484 76.7588 45.7834 76.7588 45.2997C76.7588 44.7975 76.8833 44.3511 77.1199 43.9295C77.369 43.5202 77.699 43.1916 78.1099 42.9436C78.5395 42.708 78.9878 42.584 79.4922 42.584ZM91.0112 41.7847H92.1631L94.7533 46.7388L97.3186 41.7847H98.4829V48.8345H97.5739L97.5552 43.2046L95.0397 48.0967H94.4544L91.9141 43.2046V48.8345H91.0112V41.7847ZM105.743 44.1718C105.743 43.4154 105.513 42.8387 105.027 42.4171C104.541 41.9955 103.863 41.7847 102.985 41.7847H100.245V48.8345H101.223V46.6396H102.985C103.85 46.6396 104.529 46.4288 105.021 45.9947C105.506 45.5607 105.743 44.9531 105.743 44.1718ZM104.809 44.1904C104.809 44.7051 104.653 45.0957 104.33 45.3623C104.006 45.6413 103.545 45.7715 102.935 45.7653H101.216V42.6713L102.935 42.6651C103.539 42.6651 104 42.7953 104.33 43.0558C104.647 43.31 104.809 43.6944 104.809 44.1904ZM111.614 48.8345L110.867 47.117H107.138L106.397 48.8345H105.375L108.52 41.7847H109.529L112.654 48.8345H111.614ZM107.524 46.249H110.494L108.999 42.8325L107.524 46.249ZM119.435 41.7847H118.476V47.2534L114.422 41.7847H113.445V48.8345H114.416V43.3782L118.457 48.8345H119.435V41.7847ZM126.539 41.7847L123.893 46.4226V48.8345H122.921V46.466L120.231 41.7847H121.228L123.413 45.3871L125.555 41.7847H126.539ZM56.0188 41.4868V44.4506H53.2107V41.4868H51.2681V49.1753H53.2107V46.0255H56.0188V49.1753H57.9677V41.4868H56.0188ZM60.4334 47.4702H62.7745V49.1753H58.4907V41.4868H60.4334V47.4702ZM65.3458 44.4568V43.1857H67.6621V41.4868H63.397V49.1753H67.6621V47.4702H65.3458V46.1619H67.5438V44.4568H65.3458ZM74.4928 49.1753H72.0769L70.2214 46.6393V49.1753H68.2788V41.4868H71.1803C72.656 41.4868 73.783 42.2061 73.783 43.8492C73.783 44.9156 73.2101 45.8271 72.1392 46.0255L74.4928 49.1753ZM70.2152 44.928H70.3958C71.0309 44.928 71.7407 44.804 71.7407 43.9732C71.7407 43.1485 71.0309 43.0245 70.3958 43.0245H70.2152V44.928ZM33.3112 47.1229L34.0583 48.8342V48.8404H35.1044L31.9725 41.7906H30.9576L27.8257 48.8404H28.8344L29.5691 47.1229H33.3112ZM32.9313 46.2487H29.9551L31.4308 42.8323L32.9313 46.2487Z" fill="black"/>
</svg>
